G04 MADE WITH FRITZING*
G04 WWW.FRITZING.ORG*
G04 DOUBLE SIDED*
G04 HOLES PLATED*
G04 CONTOUR ON CENTER OF CONTOUR VECTOR*
%FSLAX26Y26*%
%MOIN*%
%ADD10C,0.049370*%
%ADD11C,0.080000*%
%ADD12C,0.075000*%
%ADD13C,0.084000*%
%ADD14C,0.085000*%
%ADD15C,0.092000*%
%ADD16C,0.088000*%
%ADD17C,0.138000*%
%ADD18C,0.135984*%
%ADD19C,0.096614*%
%ADD20R,0.104488X0.104488*%
%ADD21R,0.092000X0.092000*%
%ADD22R,0.001000X0.001000*%
G04 MASK1*
%FSLAX26Y26*%
%MOIN*%
D10*
X2170730Y74650D03*
X2170730Y274700D03*
D11*
X470500Y1274189D03*
X470500Y1174004D03*
X370500Y1274189D03*
X370500Y1174004D03*
D10*
X70496Y1274193D03*
X1170500Y274190D03*
X2171190Y973137D03*
D11*
X2770500Y1574189D03*
X2770500Y1474004D03*
D10*
X1870500Y1074193D03*
X2570500Y1374193D03*
X170496Y74190D03*
X3070500Y1774193D03*
D12*
X2070500Y1874192D03*
X2070500Y1774191D03*
X2070500Y1874192D03*
X2070500Y1774191D03*
D10*
X2770500Y1874193D03*
D13*
X470500Y674190D03*
X395500Y724190D03*
X470500Y774190D03*
X470500Y674190D03*
X395500Y724190D03*
X470500Y774190D03*
X470498Y974190D03*
X420498Y899190D03*
X370498Y974190D03*
X470498Y974190D03*
X420498Y899190D03*
X370498Y974190D03*
D11*
X2270500Y1874378D03*
X2270500Y1774193D03*
D14*
X3170500Y1174189D03*
X2770500Y1174189D03*
X3170500Y774190D03*
X2770500Y774190D03*
D15*
X2570500Y1474189D03*
X2272500Y1474189D03*
X2370500Y1574189D03*
X2370500Y1872189D03*
X2770500Y1274189D03*
X3068500Y1274189D03*
X2470500Y1374189D03*
X2768500Y1374189D03*
X2670500Y474190D03*
X2670500Y176190D03*
X2770500Y174190D03*
X2770500Y472190D03*
X370500Y472190D03*
X370500Y174190D03*
X270500Y176190D03*
X270500Y474190D03*
X2570500Y874190D03*
X2570500Y1172190D03*
X2670500Y1174189D03*
X2670500Y876190D03*
X2570500Y476190D03*
X2570500Y774190D03*
X2672500Y674190D03*
X2970500Y674190D03*
D14*
X170500Y574190D03*
X170500Y174190D03*
D11*
X570500Y874000D03*
X570500Y974185D03*
D10*
X2470500Y1074193D03*
X2370500Y1274193D03*
D13*
X570500Y1074189D03*
X570500Y1274189D03*
X570500Y1074189D03*
X570500Y1274189D03*
X1870500Y1574189D03*
X1870500Y1774189D03*
X1870500Y1574189D03*
X1870500Y1774189D03*
D14*
X2570500Y1674189D03*
X2970500Y1674189D03*
D11*
X2870500Y1074189D03*
X2870500Y974004D03*
D14*
X2570500Y1774189D03*
X2970500Y1774189D03*
X870500Y774190D03*
X1270500Y774190D03*
X570500Y274190D03*
X570500Y674190D03*
X470500Y174190D03*
X470500Y574190D03*
X1870500Y374190D03*
X2270500Y374190D03*
X1870500Y174190D03*
X2270500Y174190D03*
X1870500Y474190D03*
X2270500Y474190D03*
X2870500Y174190D03*
X2870500Y574190D03*
X2170500Y1674189D03*
X2170500Y1274189D03*
X2070500Y1674189D03*
X2070500Y1274189D03*
D16*
X1970500Y1374189D03*
X1970500Y1274189D03*
X1970500Y1074189D03*
X1970500Y974189D03*
D11*
X570500Y1874189D03*
X570500Y1774004D03*
D10*
X2270500Y1874193D03*
D15*
X270500Y1376189D03*
X270500Y1674189D03*
D16*
X1671710Y175690D03*
X1671710Y275690D03*
X1671710Y375690D03*
X1671710Y475690D03*
X1671710Y575690D03*
X1671710Y675690D03*
X1671710Y775690D03*
X1671710Y875690D03*
X1671710Y975690D03*
X1671710Y1075690D03*
X1671710Y1175690D03*
X1671710Y1275690D03*
X1671710Y1375690D03*
X1671710Y1475690D03*
X1671710Y1575690D03*
X1671710Y1675690D03*
X1671710Y1775690D03*
X1671710Y1875690D03*
D13*
X3357000Y1474689D03*
X3457000Y1524689D03*
X3357000Y1574689D03*
X3457000Y1624689D03*
X3357000Y1674689D03*
X3457000Y1724689D03*
D17*
X3707000Y1399689D03*
X3707000Y1799689D03*
D13*
X3357000Y1474689D03*
X3457000Y1524689D03*
X3357000Y1574689D03*
X3457000Y1624689D03*
X3357000Y1674689D03*
X3457000Y1724689D03*
D17*
X3707000Y1399689D03*
X3707000Y1799689D03*
D14*
X2470500Y674190D03*
X2070500Y674190D03*
D11*
X2370500Y374190D03*
X2370500Y274010D03*
X2270500Y574190D03*
X2170320Y574190D03*
D13*
X3357000Y197690D03*
X3457000Y247690D03*
X3357000Y297690D03*
X3457000Y347690D03*
X3357000Y397690D03*
X3457000Y447690D03*
D17*
X3707000Y122690D03*
X3707000Y522690D03*
D13*
X3357000Y197690D03*
X3457000Y247690D03*
X3357000Y297690D03*
X3457000Y347690D03*
X3357000Y397690D03*
X3457000Y447690D03*
D17*
X3707000Y122690D03*
X3707000Y522690D03*
D14*
X2470500Y174190D03*
X2470500Y574190D03*
D11*
X2370500Y174380D03*
X2370500Y74200D03*
D16*
X771711Y1875689D03*
X771711Y1775689D03*
X771711Y1675689D03*
X771711Y1575689D03*
X771711Y1475689D03*
X771711Y1375689D03*
X771711Y1275689D03*
X771711Y1175689D03*
X771711Y1075689D03*
X771711Y975689D03*
X771711Y875690D03*
X771711Y775690D03*
X771711Y675690D03*
X771711Y575690D03*
X771711Y475690D03*
X771711Y375690D03*
X771711Y275690D03*
X771711Y175690D03*
D13*
X3442290Y1124280D03*
X3542290Y1074280D03*
X3442290Y1024280D03*
X3442290Y924280D03*
X3442290Y824280D03*
X3542290Y974280D03*
X3542290Y874280D03*
X3542290Y774280D03*
D18*
X3792290Y724280D03*
X3792290Y1174280D03*
D16*
X170500Y674190D03*
X170500Y774190D03*
X170500Y874190D03*
X170500Y1774189D03*
X170500Y1874189D03*
D14*
X70500Y574190D03*
X70500Y174190D03*
D19*
X3070500Y274190D03*
D12*
X470498Y1474192D03*
X470498Y1574192D03*
X470498Y1474192D03*
X470498Y1574192D03*
D13*
X170500Y1474189D03*
X170500Y1674189D03*
X170500Y1474189D03*
X170500Y1674189D03*
D20*
X3070504Y400966D03*
X3070504Y574196D03*
X3070504Y1647415D03*
X3070504Y1474186D03*
X3043724Y1874189D03*
X2870494Y1874189D03*
X2870504Y1400963D03*
X2870504Y1574192D03*
X243728Y1074189D03*
X70499Y1074189D03*
X3070504Y1047414D03*
X3070504Y874186D03*
D21*
X2571500Y1474189D03*
X2370500Y1573189D03*
X2769500Y1274189D03*
X2469500Y1374189D03*
X2670500Y475190D03*
X2770500Y173190D03*
X370500Y473190D03*
X270500Y175190D03*
X2570500Y873190D03*
X2670500Y1175189D03*
X2570500Y475190D03*
X2671500Y674190D03*
X270500Y1375189D03*
D20*
X370503Y1700964D03*
X370503Y1874193D03*
D22*
X2033500Y1811000D02*
X2107500Y1811000D01*
X2033500Y1810000D02*
X2107500Y1810000D01*
X2033500Y1809000D02*
X2107500Y1809000D01*
X2033500Y1808000D02*
X2107500Y1808000D01*
X2033500Y1807000D02*
X2107500Y1807000D01*
X2033500Y1806000D02*
X2107500Y1806000D01*
X2033500Y1805000D02*
X2107500Y1805000D01*
X2033500Y1804000D02*
X2107500Y1804000D01*
X2033500Y1803000D02*
X2107500Y1803000D01*
X2033500Y1802000D02*
X2107500Y1802000D01*
X2033500Y1801000D02*
X2107500Y1801000D01*
X2033500Y1800000D02*
X2107500Y1800000D01*
X2033500Y1799000D02*
X2107500Y1799000D01*
X2033500Y1798000D02*
X2107500Y1798000D01*
X2033500Y1797000D02*
X2107500Y1797000D01*
X2033500Y1796000D02*
X2107500Y1796000D01*
X2033500Y1795000D02*
X2107500Y1795000D01*
X2033500Y1794000D02*
X2107500Y1794000D01*
X2033500Y1793000D02*
X2107500Y1793000D01*
X2033500Y1792000D02*
X2107500Y1792000D01*
X2033500Y1791000D02*
X2107500Y1791000D01*
X2033500Y1790000D02*
X2107500Y1790000D01*
X2033500Y1789000D02*
X2107500Y1789000D01*
X2033500Y1788000D02*
X2107500Y1788000D01*
X2033500Y1787000D02*
X2107500Y1787000D01*
X2033500Y1786000D02*
X2107500Y1786000D01*
X2033500Y1785000D02*
X2107500Y1785000D01*
X2033500Y1784000D02*
X2107500Y1784000D01*
X2033500Y1783000D02*
X2107500Y1783000D01*
X2033500Y1782000D02*
X2065500Y1782000D01*
X2075500Y1782000D02*
X2107500Y1782000D01*
X2033500Y1781000D02*
X2064500Y1781000D01*
X2076500Y1781000D02*
X2107500Y1781000D01*
X2033500Y1780000D02*
X2063500Y1780000D01*
X2077500Y1780000D02*
X2107500Y1780000D01*
X2033500Y1779000D02*
X2062500Y1779000D01*
X2078500Y1779000D02*
X2107500Y1779000D01*
X2033500Y1778000D02*
X2062500Y1778000D01*
X2078500Y1778000D02*
X2107500Y1778000D01*
X2033500Y1777000D02*
X2061500Y1777000D01*
X2079500Y1777000D02*
X2107500Y1777000D01*
X2033500Y1776000D02*
X2061500Y1776000D01*
X2079500Y1776000D02*
X2107500Y1776000D01*
X2033500Y1775000D02*
X2061500Y1775000D01*
X2079500Y1775000D02*
X2107500Y1775000D01*
X2033500Y1774000D02*
X2061500Y1774000D01*
X2079500Y1774000D02*
X2107500Y1774000D01*
X2033500Y1773000D02*
X2061500Y1773000D01*
X2079500Y1773000D02*
X2107500Y1773000D01*
X2033500Y1772000D02*
X2061500Y1772000D01*
X2079500Y1772000D02*
X2107500Y1772000D01*
X2033500Y1771000D02*
X2061500Y1771000D01*
X2079500Y1771000D02*
X2107500Y1771000D01*
X2033500Y1770000D02*
X2062500Y1770000D01*
X2078500Y1770000D02*
X2107500Y1770000D01*
X2033500Y1769000D02*
X2062500Y1769000D01*
X2078500Y1769000D02*
X2107500Y1769000D01*
X2033500Y1768000D02*
X2063500Y1768000D01*
X2077500Y1768000D02*
X2107500Y1768000D01*
X2033500Y1767000D02*
X2064500Y1767000D01*
X2076500Y1767000D02*
X2107500Y1767000D01*
X2033500Y1766000D02*
X2066500Y1766000D01*
X2074500Y1766000D02*
X2107500Y1766000D01*
X2033500Y1765000D02*
X2107500Y1765000D01*
X2033500Y1764000D02*
X2107500Y1764000D01*
X2033500Y1763000D02*
X2107500Y1763000D01*
X2033500Y1762000D02*
X2107500Y1762000D01*
X2033500Y1761000D02*
X2107500Y1761000D01*
X2033500Y1760000D02*
X2107500Y1760000D01*
X2033500Y1759000D02*
X2107500Y1759000D01*
X2033500Y1758000D02*
X2107500Y1758000D01*
X2033500Y1757000D02*
X2107500Y1757000D01*
X2033500Y1756000D02*
X2107500Y1756000D01*
X2033500Y1755000D02*
X2107500Y1755000D01*
X2033500Y1754000D02*
X2107500Y1754000D01*
X2033500Y1753000D02*
X2107500Y1753000D01*
X2033500Y1752000D02*
X2107500Y1752000D01*
X2033500Y1751000D02*
X2107500Y1751000D01*
X2033500Y1750000D02*
X2107500Y1750000D01*
X2033500Y1749000D02*
X2107500Y1749000D01*
X2033500Y1748000D02*
X2107500Y1748000D01*
X2033500Y1747000D02*
X2107500Y1747000D01*
X2033500Y1746000D02*
X2107500Y1746000D01*
X2033500Y1745000D02*
X2107500Y1745000D01*
X2033500Y1744000D02*
X2107500Y1744000D01*
X2033500Y1743000D02*
X2107500Y1743000D01*
X2033500Y1742000D02*
X2107500Y1742000D01*
X2033500Y1741000D02*
X2107500Y1741000D01*
X2033500Y1740000D02*
X2107500Y1740000D01*
X2033500Y1739000D02*
X2107500Y1739000D01*
X2033500Y1738000D02*
X2107500Y1738000D01*
X2033500Y1737000D02*
X2107500Y1737000D01*
X433500Y1611000D02*
X507500Y1611000D01*
X433500Y1610000D02*
X507500Y1610000D01*
X433500Y1609000D02*
X507500Y1609000D01*
X433500Y1608000D02*
X507500Y1608000D01*
X433500Y1607000D02*
X507500Y1607000D01*
X433500Y1606000D02*
X507500Y1606000D01*
X433500Y1605000D02*
X507500Y1605000D01*
X433500Y1604000D02*
X507500Y1604000D01*
X433500Y1603000D02*
X507500Y1603000D01*
X433500Y1602000D02*
X507500Y1602000D01*
X433500Y1601000D02*
X507500Y1601000D01*
X433500Y1600000D02*
X507500Y1600000D01*
X433500Y1599000D02*
X507500Y1599000D01*
X433500Y1598000D02*
X507500Y1598000D01*
X433500Y1597000D02*
X507500Y1597000D01*
X433500Y1596000D02*
X507500Y1596000D01*
X433500Y1595000D02*
X507500Y1595000D01*
X433500Y1594000D02*
X507500Y1594000D01*
X433500Y1593000D02*
X507500Y1593000D01*
X433500Y1592000D02*
X507500Y1592000D01*
X433500Y1591000D02*
X507500Y1591000D01*
X433500Y1590000D02*
X507500Y1590000D01*
X433500Y1589000D02*
X507500Y1589000D01*
X433500Y1588000D02*
X507500Y1588000D01*
X433500Y1587000D02*
X507500Y1587000D01*
X433500Y1586000D02*
X507500Y1586000D01*
X433500Y1585000D02*
X507500Y1585000D01*
X433500Y1584000D02*
X507500Y1584000D01*
X433500Y1583000D02*
X469500Y1583000D01*
X471500Y1583000D02*
X507500Y1583000D01*
X433500Y1582000D02*
X465500Y1582000D01*
X475500Y1582000D02*
X507500Y1582000D01*
X433500Y1581000D02*
X464500Y1581000D01*
X476500Y1581000D02*
X507500Y1581000D01*
X433500Y1580000D02*
X463500Y1580000D01*
X477500Y1580000D02*
X507500Y1580000D01*
X433500Y1579000D02*
X462500Y1579000D01*
X478500Y1579000D02*
X507500Y1579000D01*
X433500Y1578000D02*
X462500Y1578000D01*
X478500Y1578000D02*
X507500Y1578000D01*
X433500Y1577000D02*
X461500Y1577000D01*
X479500Y1577000D02*
X507500Y1577000D01*
X433500Y1576000D02*
X461500Y1576000D01*
X479500Y1576000D02*
X507500Y1576000D01*
X433500Y1575000D02*
X461500Y1575000D01*
X479500Y1575000D02*
X507500Y1575000D01*
X433500Y1574000D02*
X461500Y1574000D01*
X479500Y1574000D02*
X507500Y1574000D01*
X433500Y1573000D02*
X461500Y1573000D01*
X479500Y1573000D02*
X507500Y1573000D01*
X433500Y1572000D02*
X461500Y1572000D01*
X479500Y1572000D02*
X507500Y1572000D01*
X433500Y1571000D02*
X461500Y1571000D01*
X479500Y1571000D02*
X507500Y1571000D01*
X433500Y1570000D02*
X462500Y1570000D01*
X478500Y1570000D02*
X507500Y1570000D01*
X433500Y1569000D02*
X463500Y1569000D01*
X477500Y1569000D02*
X507500Y1569000D01*
X433500Y1568000D02*
X463500Y1568000D01*
X477500Y1568000D02*
X507500Y1568000D01*
X433500Y1567000D02*
X464500Y1567000D01*
X476500Y1567000D02*
X507500Y1567000D01*
X433500Y1566000D02*
X466500Y1566000D01*
X474500Y1566000D02*
X507500Y1566000D01*
X433500Y1565000D02*
X507500Y1565000D01*
X433500Y1564000D02*
X507500Y1564000D01*
X433500Y1563000D02*
X507500Y1563000D01*
X433500Y1562000D02*
X507500Y1562000D01*
X433500Y1561000D02*
X507500Y1561000D01*
X433500Y1560000D02*
X507500Y1560000D01*
X433500Y1559000D02*
X507500Y1559000D01*
X433500Y1558000D02*
X507500Y1558000D01*
X433500Y1557000D02*
X507500Y1557000D01*
X433500Y1556000D02*
X507500Y1556000D01*
X433500Y1555000D02*
X507500Y1555000D01*
X433500Y1554000D02*
X507500Y1554000D01*
X433500Y1553000D02*
X507500Y1553000D01*
X433500Y1552000D02*
X507500Y1552000D01*
X433500Y1551000D02*
X507500Y1551000D01*
X433500Y1550000D02*
X507500Y1550000D01*
X433500Y1549000D02*
X507500Y1549000D01*
X433500Y1548000D02*
X507500Y1548000D01*
X433500Y1547000D02*
X507500Y1547000D01*
X433500Y1546000D02*
X507500Y1546000D01*
X433500Y1545000D02*
X507500Y1545000D01*
X433500Y1544000D02*
X507500Y1544000D01*
X433500Y1543000D02*
X507500Y1543000D01*
X433500Y1542000D02*
X507500Y1542000D01*
X433500Y1541000D02*
X507500Y1541000D01*
X433500Y1540000D02*
X507500Y1540000D01*
X433500Y1539000D02*
X507500Y1539000D01*
X433500Y1538000D02*
X507500Y1538000D01*
X433500Y1537000D02*
X507500Y1537000D01*
X3500500Y816000D02*
X3583500Y816000D01*
X3500500Y815000D02*
X3583500Y815000D01*
X3500500Y814000D02*
X3583500Y814000D01*
X3500500Y813000D02*
X3583500Y813000D01*
X3500500Y812000D02*
X3583500Y812000D01*
X3500500Y811000D02*
X3583500Y811000D01*
X3500500Y810000D02*
X3583500Y810000D01*
X3500500Y809000D02*
X3583500Y809000D01*
X3500500Y808000D02*
X3583500Y808000D01*
X3500500Y807000D02*
X3583500Y807000D01*
X3500500Y806000D02*
X3583500Y806000D01*
X3500500Y805000D02*
X3583500Y805000D01*
X3500500Y804000D02*
X3583500Y804000D01*
X3500500Y803000D02*
X3583500Y803000D01*
X3500500Y802000D02*
X3583500Y802000D01*
X3500500Y801000D02*
X3583500Y801000D01*
X3500500Y800000D02*
X3583500Y800000D01*
X3500500Y799000D02*
X3583500Y799000D01*
X3500500Y798000D02*
X3583500Y798000D01*
X3500500Y797000D02*
X3583500Y797000D01*
X3500500Y796000D02*
X3583500Y796000D01*
X3500500Y795000D02*
X3583500Y795000D01*
X3500500Y794000D02*
X3583500Y794000D01*
X3500500Y793000D02*
X3583500Y793000D01*
X3500500Y792000D02*
X3583500Y792000D01*
X3500500Y791000D02*
X3583500Y791000D01*
X3500500Y790000D02*
X3583500Y790000D01*
X3500500Y789000D02*
X3538500Y789000D01*
X3545500Y789000D02*
X3583500Y789000D01*
X3500500Y788000D02*
X3535500Y788000D01*
X3548500Y788000D02*
X3583500Y788000D01*
X3500500Y787000D02*
X3533500Y787000D01*
X3550500Y787000D02*
X3583500Y787000D01*
X3500500Y786000D02*
X3532500Y786000D01*
X3551500Y786000D02*
X3583500Y786000D01*
X3500500Y785000D02*
X3531500Y785000D01*
X3553500Y785000D02*
X3583500Y785000D01*
X3500500Y784000D02*
X3530500Y784000D01*
X3553500Y784000D02*
X3583500Y784000D01*
X3500500Y783000D02*
X3529500Y783000D01*
X3554500Y783000D02*
X3583500Y783000D01*
X3500500Y782000D02*
X3529500Y782000D01*
X3555500Y782000D02*
X3583500Y782000D01*
X3500500Y781000D02*
X3528500Y781000D01*
X3556500Y781000D02*
X3583500Y781000D01*
X3500500Y780000D02*
X3528500Y780000D01*
X3556500Y780000D02*
X3583500Y780000D01*
X3500500Y779000D02*
X3527500Y779000D01*
X3556500Y779000D02*
X3583500Y779000D01*
X3500500Y778000D02*
X3527500Y778000D01*
X3557500Y778000D02*
X3583500Y778000D01*
X3500500Y777000D02*
X3527500Y777000D01*
X3557500Y777000D02*
X3583500Y777000D01*
X3500500Y776000D02*
X3527500Y776000D01*
X3557500Y776000D02*
X3583500Y776000D01*
X3500500Y775000D02*
X3527500Y775000D01*
X3557500Y775000D02*
X3583500Y775000D01*
X3500500Y774000D02*
X3527500Y774000D01*
X3557500Y774000D02*
X3583500Y774000D01*
X3500500Y773000D02*
X3527500Y773000D01*
X3557500Y773000D02*
X3583500Y773000D01*
X3500500Y772000D02*
X3527500Y772000D01*
X3557500Y772000D02*
X3583500Y772000D01*
X3500500Y771000D02*
X3527500Y771000D01*
X3557500Y771000D02*
X3583500Y771000D01*
X3500500Y770000D02*
X3527500Y770000D01*
X3556500Y770000D02*
X3583500Y770000D01*
X3500500Y769000D02*
X3528500Y769000D01*
X3556500Y769000D02*
X3583500Y769000D01*
X3500500Y768000D02*
X3528500Y768000D01*
X3555500Y768000D02*
X3583500Y768000D01*
X3500500Y767000D02*
X3529500Y767000D01*
X3555500Y767000D02*
X3583500Y767000D01*
X3500500Y766000D02*
X3529500Y766000D01*
X3554500Y766000D02*
X3583500Y766000D01*
X3500500Y765000D02*
X3530500Y765000D01*
X3553500Y765000D02*
X3583500Y765000D01*
X3500500Y764000D02*
X3531500Y764000D01*
X3552500Y764000D02*
X3583500Y764000D01*
X3500500Y763000D02*
X3532500Y763000D01*
X3551500Y763000D02*
X3583500Y763000D01*
X3500500Y762000D02*
X3534500Y762000D01*
X3550500Y762000D02*
X3583500Y762000D01*
X3500500Y761000D02*
X3536500Y761000D01*
X3548500Y761000D02*
X3583500Y761000D01*
X3500500Y760000D02*
X3540500Y760000D01*
X3543500Y760000D02*
X3583500Y760000D01*
X3500500Y759000D02*
X3583500Y759000D01*
X3500500Y758000D02*
X3583500Y758000D01*
X3500500Y757000D02*
X3583500Y757000D01*
X3500500Y756000D02*
X3583500Y756000D01*
X3500500Y755000D02*
X3583500Y755000D01*
X3500500Y754000D02*
X3583500Y754000D01*
X3500500Y753000D02*
X3583500Y753000D01*
X3500500Y752000D02*
X3583500Y752000D01*
X3500500Y751000D02*
X3583500Y751000D01*
X3500500Y750000D02*
X3583500Y750000D01*
X3500500Y749000D02*
X3583500Y749000D01*
X3500500Y748000D02*
X3583500Y748000D01*
X3500500Y747000D02*
X3583500Y747000D01*
X3500500Y746000D02*
X3583500Y746000D01*
X3500500Y745000D02*
X3583500Y745000D01*
X3500500Y744000D02*
X3583500Y744000D01*
X3500500Y743000D02*
X3583500Y743000D01*
X3500500Y742000D02*
X3583500Y742000D01*
X3500500Y741000D02*
X3583500Y741000D01*
X3500500Y740000D02*
X3583500Y740000D01*
X3500500Y739000D02*
X3583500Y739000D01*
X3500500Y738000D02*
X3583500Y738000D01*
X3500500Y737000D02*
X3583500Y737000D01*
X3500500Y736000D02*
X3583500Y736000D01*
X3500500Y735000D02*
X3583500Y735000D01*
X3500500Y734000D02*
X3583500Y734000D01*
X3500500Y733000D02*
X3583500Y733000D01*
D02*
G04 End of Mask1*
M02*