; NON-PLATED HOLES START AT T1
; THROUGH (PLATED) HOLES START AT T100
M48
INCH
T1C0.128000
T2C0.125984
T3C0.086614
T100C0.015748
T101C0.035000
T102C0.042000
T103C0.040000
T104C0.027559
T105C0.031496
T106C0.032000
T107C0.030000
T108C0.039370
T109C0.038000
%
T1
X037070Y001226
X037070Y005226
X037070Y013996
X037070Y017996
T2
X037922Y011742
X037922Y007242
T3
X030705Y002741
T100
X023705Y012741
X000704Y012741
X024705Y010741
X018705Y010741
X021707Y002747
X027705Y018741
X025705Y013741
X021711Y009731
X030705Y017741
X001704Y000741
X021707Y000746
X011705Y002741
X022705Y018741
T101
X022705Y004741
X025705Y017741
X018705Y003741
X000705Y001741
X022705Y003741
X020705Y006741
X000705Y005741
X018705Y004741
X001705Y001741
X031705Y011741
X027705Y011741
X001705Y005741
X025705Y016741
X005705Y006741
X004705Y001741
X024705Y005741
X022705Y001741
X021705Y016741
X008705Y007741
X029705Y017741
X020705Y012741
X018705Y001741
X012705Y007741
X024705Y001741
X004705Y005741
X024705Y006741
X029705Y016741
X027705Y007741
X028705Y005741
X005705Y002741
X028705Y001741
X031705Y007741
X020705Y016741
X021705Y012741
T102
X029705Y006741
X026705Y008761
X025705Y008741
X025705Y004761
X027705Y001741
X026705Y001761
X026705Y004741
X002705Y004741
X002705Y001761
X003705Y001741
X022725Y014741
X027705Y012741
X024705Y013741
X025705Y007741
X025705Y011721
X030685Y012741
X027685Y013741
X023705Y018721
X027705Y004721
X026725Y006741
X003705Y004721
X023705Y015741
X002705Y013761
X002705Y016741
X025705Y014741
X026705Y011741
T103
X033570Y014746
X033570Y016746
X033570Y001976
X034570Y016246
X034570Y003476
X033570Y015746
X034570Y017246
X033570Y003976
X034570Y015246
X034570Y002476
X034570Y004476
X033570Y002976
T104
X020705Y017741
X004704Y015741
X020705Y018741
X004704Y014741
T105
X001705Y016741
X018705Y017741
X001705Y014741
X005705Y010741
X005705Y012741
X018705Y015741
T106
X003955Y007241
X004705Y006741
X004204Y008991
X003704Y009741
X004704Y009741
X004705Y007741
T107
X005705Y008740
X028705Y009740
X005705Y017740
X004705Y012741
X023705Y001743
X021703Y005741
X022705Y005741
X003705Y012741
X023705Y003741
X022705Y017741
X005705Y009741
X003705Y011740
X027705Y015741
X027705Y014740
X022705Y018743
X005705Y018741
X023705Y000742
X028705Y010741
X023705Y002740
X004705Y011740
T108
X035422Y007742
X034422Y008242
X035422Y009742
X034422Y011242
X035422Y008742
X034422Y010242
X035422Y010742
X034422Y009242
T109
X007717Y017756
X007717Y001756
X016717Y015756
X016717Y002756
X007717Y006756
X001705Y018741
X001705Y007741
X016717Y007756
X016717Y016756
X007717Y005756
X019705Y013741
X007717Y012756
X016717Y011756
X016717Y001756
X001705Y006741
X007717Y002756
X007717Y015756
X016717Y006756
X019705Y010741
X016717Y017756
X007717Y016756
X016717Y012756
X016717Y005756
X007717Y011756
X007717Y007756
X016717Y009756
X019705Y009741
X007717Y004756
X016717Y013756
X016717Y018756
X016717Y014756
X007717Y003756
X007717Y008756
X007717Y010756
X007717Y018756
X007717Y009756
X007717Y013756
X016717Y004756
X019705Y012741
X001705Y008741
X001705Y017741
X016717Y010756
X016717Y008756
X016717Y003756
X007717Y014756
T00
M30
